<svg width="22" height="22" viewBox="0 0 22 22" fill="none" xmlns="http://www.w3.org/2000/svg">
<g clip-path="url(#clip0_5_292)">
<path d="M19.7083 3.66663H17.7222V4.88885H19.5556V18.3333H2.44444V4.88885H4.27778V3.66663H2.29167C2.14881 3.66901 2.00783 3.69952 1.87676 3.7564C1.7457 3.81329 1.62713 3.89543 1.52782 3.99815C1.4285 4.10086 1.3504 4.22214 1.29797 4.35504C1.24553 4.48795 1.21979 4.62988 1.22222 4.77274V18.4494C1.21979 18.5923 1.24553 18.7342 1.29797 18.8671C1.3504 19 1.4285 19.1213 1.52782 19.224C1.62713 19.3267 1.7457 19.4089 1.87676 19.4657C2.00783 19.5226 2.14881 19.5531 2.29167 19.5555H19.7083C19.8512 19.5531 19.9922 19.5226 20.1232 19.4657C20.2543 19.4089 20.3729 19.3267 20.4722 19.224C20.5715 19.1213 20.6496 19 20.702 18.8671C20.7545 18.7342 20.7802 18.5923 20.7778 18.4494V4.77274C20.7802 4.62988 20.7545 4.48795 20.702 4.35504C20.6496 4.22214 20.5715 4.10086 20.4722 3.99815C20.3729 3.89543 20.2543 3.81329 20.1232 3.7564C19.9922 3.69952 19.8512 3.66901 19.7083 3.66663Z" fill="#8C8C8C"/>
<path d="M4.88889 8.55554H6.11111V9.77776H4.88889V8.55554Z" fill="#8C8C8C"/>
<path d="M8.55556 8.55554H9.77778V9.77776H8.55556V8.55554Z" fill="#8C8C8C"/>
<path d="M12.2222 8.55554H13.4444V9.77776H12.2222V8.55554Z" fill="#8C8C8C"/>
<path d="M15.8889 8.55554H17.1111V9.77776H15.8889V8.55554Z" fill="#8C8C8C"/>
<path d="M4.88889 11.6111H6.11111V12.8333H4.88889V11.6111Z" fill="#8C8C8C"/>
<path d="M8.55556 11.6111H9.77778V12.8333H8.55556V11.6111Z" fill="#8C8C8C"/>
<path d="M12.2222 11.6111H13.4444V12.8333H12.2222V11.6111Z" fill="#8C8C8C"/>
<path d="M15.8889 11.6111H17.1111V12.8333H15.8889V11.6111Z" fill="#8C8C8C"/>
<path d="M4.88889 14.6666H6.11111V15.8888H4.88889V14.6666Z" fill="#8C8C8C"/>
<path d="M8.55556 14.6666H9.77778V15.8888H8.55556V14.6666Z" fill="#8C8C8C"/>
<path d="M12.2222 14.6666H13.4444V15.8888H12.2222V14.6666Z" fill="#8C8C8C"/>
<path d="M15.8889 14.6666H17.1111V15.8888H15.8889V14.6666Z" fill="#8C8C8C"/>
<path d="M6.11111 6.11106C6.27319 6.11106 6.42863 6.04667 6.54323 5.93207C6.65784 5.81746 6.72222 5.66202 6.72222 5.49995V1.83328C6.72222 1.6712 6.65784 1.51576 6.54323 1.40116C6.42863 1.28655 6.27319 1.22217 6.11111 1.22217C5.94903 1.22217 5.7936 1.28655 5.67899 1.40116C5.56438 1.51576 5.5 1.6712 5.5 1.83328V5.49995C5.5 5.66202 5.56438 5.81746 5.67899 5.93207C5.7936 6.04667 5.94903 6.11106 6.11111 6.11106Z" fill="#8C8C8C"/>
<path d="M15.8889 6.11106C16.051 6.11106 16.2064 6.04667 16.321 5.93207C16.4356 5.81746 16.5 5.66202 16.5 5.49995V1.83328C16.5 1.6712 16.4356 1.51576 16.321 1.40116C16.2064 1.28655 16.051 1.22217 15.8889 1.22217C15.7268 1.22217 15.5714 1.28655 15.4568 1.40116C15.3422 1.51576 15.2778 1.6712 15.2778 1.83328V5.49995C15.2778 5.66202 15.3422 5.81746 15.4568 5.93207C15.5714 6.04667 15.7268 6.11106 15.8889 6.11106Z" fill="#8C8C8C"/>
<path d="M7.94444 3.66663H14.0556V4.88885H7.94444V3.66663Z" fill="#8C8C8C"/>
</g>
<defs>
<clipPath id="clip0_5_292">
<rect width="22" height="22" fill="white"/>
</clipPath>
</defs>
</svg>
