<svg width="16" height="20" viewBox="0 0 16 20" fill="none" xmlns="http://www.w3.org/2000/svg">
<path d="M14.1875 2.4375H12.125V1.75C12.1239 1.38566 11.9787 1.03656 11.7211 0.77893C11.4634 0.521303 11.1143 0.376088 10.75 0.375H5.25C4.88566 0.376088 4.53656 0.521303 4.27893 0.77893C4.0213 1.03656 3.87609 1.38566 3.875 1.75V2.4375H1.8125C1.44816 2.43859 1.09906 2.5838 0.84143 2.84143C0.583803 3.09906 0.438588 3.44816 0.4375 3.8125V18.25C0.438588 18.6143 0.583803 18.9634 0.84143 19.2211C1.09906 19.4787 1.44816 19.6239 1.8125 19.625H8V18.25H1.8125V3.8125H3.875V5.875H12.125V3.8125H14.1875V11.375H15.5625V3.8125C15.5614 3.44816 15.4162 3.09906 15.1586 2.84143C14.9009 2.5838 14.5518 2.43859 14.1875 2.4375ZM10.75 4.5H5.25V1.75H10.75V4.5Z" fill="#8C8C8C"/>
</svg>
