<svg width="20" height="26" viewBox="0 0 20 26" fill="none" xmlns="http://www.w3.org/2000/svg">
<path d="M17.875 3.375H15.25V2.5C15.2486 2.0363 15.0638 1.59198 14.7359 1.26409C14.408 0.936204 13.9637 0.751385 13.5 0.75H6.5C6.0363 0.751385 5.59198 0.936204 5.26409 1.26409C4.9362 1.59198 4.75138 2.0363 4.75 2.5V3.375H2.125C1.6613 3.37638 1.21698 3.5612 0.889093 3.88909C0.561204 4.21698 0.376385 4.6613 0.375 5.125V23.5C0.376385 23.9637 0.561204 24.408 0.889093 24.7359C1.21698 25.0638 1.6613 25.2486 2.125 25.25H10V23.5H2.125V5.125H4.75V7.75H15.25V5.125H17.875V14.75H19.625V5.125C19.6236 4.6613 19.4388 4.21698 19.1109 3.88909C18.783 3.5612 18.3387 3.37638 17.875 3.375ZM13.5 6H6.5V2.5H13.5V6Z" fill="black"/>
</svg>
