<svg width="26" height="27" viewBox="0 0 26 27" fill="none" xmlns="http://www.w3.org/2000/svg">
<path d="M10.5 5.25H15.5C15.5 4.58696 15.2366 3.95107 14.7678 3.48223C14.2989 3.01339 13.663 2.75 13 2.75C12.337 2.75 11.7011 3.01339 11.2322 3.48223C10.7634 3.95107 10.5 4.58696 10.5 5.25ZM8.625 5.25C8.625 4.67547 8.73816 4.10656 8.95803 3.57576C9.17789 3.04496 9.50015 2.56266 9.90641 2.15641C10.3127 1.75015 10.795 1.42789 11.3258 1.20803C11.8566 0.988163 12.4255 0.875 13 0.875C13.5745 0.875 14.1434 0.988163 14.6742 1.20803C15.205 1.42789 15.6873 1.75015 16.0936 2.15641C16.4998 2.56266 16.8221 3.04496 17.042 3.57576C17.2618 4.10656 17.375 4.67547 17.375 5.25H24.5625C24.8111 5.25 25.0496 5.34877 25.2254 5.52459C25.4012 5.7004 25.5 5.93886 25.5 6.1875C25.5 6.43614 25.4012 6.6746 25.2254 6.85041C25.0496 7.02623 24.8111 7.125 24.5625 7.125H22.9125L21.45 22.2638C21.3378 23.4237 20.7976 24.5003 19.9346 25.2835C19.0716 26.0668 17.9479 26.5004 16.7825 26.5H9.2175C8.05233 26.5001 6.92888 26.0663 6.06619 25.2831C5.2035 24.4999 4.66342 23.4235 4.55125 22.2638L3.0875 7.125H1.4375C1.18886 7.125 0.950403 7.02623 0.774587 6.85041C0.598772 6.6746 0.5 6.43614 0.5 6.1875C0.5 5.93886 0.598772 5.7004 0.774587 5.52459C0.950403 5.34877 1.18886 5.25 1.4375 5.25H8.625ZM11.125 11.1875C11.125 10.9389 11.0262 10.7004 10.8504 10.5246C10.6746 10.3488 10.4361 10.25 10.1875 10.25C9.93886 10.25 9.7004 10.3488 9.52459 10.5246C9.34877 10.7004 9.25 10.9389 9.25 11.1875V20.5625C9.25 20.8111 9.34877 21.0496 9.52459 21.2254C9.7004 21.4012 9.93886 21.5 10.1875 21.5C10.4361 21.5 10.6746 21.4012 10.8504 21.2254C11.0262 21.0496 11.125 20.8111 11.125 20.5625V11.1875ZM15.8125 10.25C15.5639 10.25 15.3254 10.3488 15.1496 10.5246C14.9738 10.7004 14.875 10.9389 14.875 11.1875V20.5625C14.875 20.8111 14.9738 21.0496 15.1496 21.2254C15.3254 21.4012 15.5639 21.5 15.8125 21.5C16.0611 21.5 16.2996 21.4012 16.4754 21.2254C16.6512 21.0496 16.75 20.8111 16.75 20.5625V11.1875C16.75 10.9389 16.6512 10.7004 16.4754 10.5246C16.2996 10.3488 16.0611 10.25 15.8125 10.25Z" fill="#EB3838"/>
</svg>
