<svg width="20" height="19" viewBox="0 0 20 19" fill="none" xmlns="http://www.w3.org/2000/svg">
<path d="M1.77668 18.9286C1.62986 18.9284 1.4847 18.8987 1.35043 18.8415C1.21616 18.7843 1.09571 18.7008 0.996757 18.5963C0.896011 18.4927 0.819134 18.3698 0.77117 18.2356C0.723205 18.1014 0.705235 17.9589 0.718439 17.8175L0.977709 15.0715L12.9549 3.53879L16.6979 7.14313L4.72389 18.6748L1.87298 18.9245C1.84097 18.9274 1.80883 18.9287 1.77668 18.9286ZM17.445 6.42247L13.7031 2.81813L15.9476 0.656133C16.0459 0.56136 16.1626 0.486175 16.2911 0.434878C16.4196 0.383581 16.5573 0.357178 16.6963 0.357178C16.8354 0.357178 16.9731 0.383581 17.1016 0.434878C17.23 0.486175 17.3468 0.56136 17.445 0.656133L19.6896 2.81813C19.788 2.91279 19.866 3.02521 19.9193 3.14896C19.9725 3.2727 19.9999 3.40535 19.9999 3.5393C19.9999 3.67326 19.9725 3.8059 19.9193 3.92964C19.866 4.05339 19.788 4.16581 19.6896 4.26048L17.4461 6.42145L17.445 6.42247Z" fill="black"/>
</svg>
