<svg width="27" height="27" viewBox="0 0 27 27" fill="none" xmlns="http://www.w3.org/2000/svg">
<path d="M1.48743 26.5C1.28188 26.4996 1.07865 26.4581 0.890674 26.378C0.702694 26.2979 0.534073 26.181 0.395533 26.0348C0.254488 25.8897 0.146861 25.7176 0.0797108 25.5298C0.0125603 25.3419 -0.0125971 25.1424 0.0058878 24.9445L0.368865 21.1L17.137 4.95426L22.3772 10.0003L5.61352 26.1447L1.62225 26.4943C1.57743 26.4983 1.53244 26.5002 1.48743 26.5ZM23.4231 8.99141L18.1844 3.94533L21.3268 0.918537C21.4643 0.785855 21.6277 0.680596 21.8076 0.60878C21.9875 0.536965 22.1802 0.5 22.3749 0.5C22.5696 0.5 22.7624 0.536965 22.9423 0.60878C23.1221 0.680596 23.2855 0.785855 23.4231 0.918537L26.5655 3.94533C26.7032 4.07786 26.8125 4.23525 26.8871 4.40849C26.9616 4.58174 27 4.76743 27 4.95497C27 5.14251 26.9616 5.32821 26.8871 5.50145C26.8125 5.67469 26.7032 5.83208 26.5655 5.96462L23.4246 8.98998L23.4231 8.99141Z" fill="black"/>
</svg>
