<svg width="56" height="56" viewBox="0 0 56 56" fill="none" xmlns="http://www.w3.org/2000/svg">
<path d="M29.5417 19.5208C29.5417 18.2437 30.577 17.2083 31.8542 17.2083H42.6458C43.9229 17.2083 44.9583 18.2437 44.9583 19.5208C44.9583 20.798 43.9229 21.8333 42.6458 21.8333H31.8542C30.577 21.8333 29.5417 20.798 29.5417 19.5208ZM31.8545 34.1667C30.577 34.1667 29.542 35.202 29.542 36.4792C29.542 37.7563 30.577 38.7917 31.8545 38.7917H42.6455C43.923 38.7917 44.958 37.7563 44.958 36.4792C44.958 35.202 43.923 34.1667 42.6455 34.1667H31.8545ZM24.2393 18.0727C25.1424 17.1696 25.1424 15.7054 24.2393 14.8023C23.3361 13.8992 21.8722 13.8992 20.969 14.8023L16.4375 19.3338L14.9894 17.8856C14.0863 16.9826 12.6221 16.9826 11.719 17.8856C10.8159 18.7887 10.8159 20.2529 11.719 21.156L14.8023 24.2393C15.7054 25.1424 17.1696 25.1424 18.0727 24.2393L24.2393 18.0727ZM24.2393 31.7607C25.1424 32.6638 25.1424 34.1278 24.2393 35.0309L18.0727 41.1976C17.1696 42.1007 15.7054 42.1007 14.8023 41.1976L11.719 38.1143C10.8159 37.2111 10.8159 35.7472 11.719 34.8441C12.6221 33.941 14.0863 33.941 14.9894 34.8441L16.4375 36.292L20.969 31.7607C21.8722 30.8576 23.3361 30.8576 24.2393 31.7607ZM10.2708 0.25C4.73647 0.25 0.25 4.73647 0.25 10.2708V45.7292C0.25 51.2634 4.73647 55.75 10.2708 55.75H45.7292C51.2634 55.75 55.75 51.2634 55.75 45.7292V10.2708C55.75 4.73647 51.2634 0.25 45.7292 0.25H10.2708ZM4.875 10.2708C4.875 7.29079 7.29079 4.875 10.2708 4.875H45.7292C48.7092 4.875 51.125 7.29079 51.125 10.2708V45.7292C51.125 48.7092 48.7092 51.125 45.7292 51.125H10.2708C7.29079 51.125 4.875 48.7092 4.875 45.7292V10.2708Z" fill="#AB31D6" fill-opacity="0.77"/>
</svg>
